<svg xmlns="http://www.w3.org/2000/svg" version="1.1" xmlns:xlink="http://www.w3.org/1999/xlink"
  width="1500" height="1500" viewBox="0 0 213 213">
  <rect width="100%" height="100%" fill="transparent"></rect>
  <rect width="100" height="100" x="-50" y="-50" fill="#6c5ce7" rx="0" ry="0"
    transform="translate(106.5 106.5)scale(2.0735)"></rect>
  <path fill="#ffffff"
    d="M23.39 71.982a3.143 3.143 0 0 1 3.143-3.144h25.145c.312 0 .613.051.897.139a3.134 3.134 0 0 0-2.995-2.237H24.44a3.144 3.144 0 0 0-3.143 3.145v90.095h2.094z"></path>
  <path fill="#ffffff"
    d="M25.486 74.078v85.906h27.237v-89.05H28.63a3.144 3.144 0 0 0-3.144 3.144M21.3 162.08h166.57v5.234H21.3zM57.18 60.457a3.144 3.144 0 0 1 3.142-3.142h25.14c.317 0 .618.054.9.14a3.132 3.132 0 0 0-2.995-2.236H58.223a3.144 3.144 0 0 0-3.142 3.143v101.62h2.097z"></path>
  <path fill="#ffffff"
    d="M59.272 62.553v97.43h27.239V59.41H62.416a3.142 3.142 0 0 0-3.144 3.142M90.96 81.411a3.143 3.143 0 0 1 3.143-3.144h25.147c.312 0 .61.052.895.14a3.132 3.132 0 0 0-2.993-2.236H92.013a3.144 3.144 0 0 0-3.144 3.145v80.666h2.093v-78.57z"></path>
  <path fill="#ffffff"
    d="M93.058 83.505v76.477h27.238v-79.62H96.2a3.144 3.144 0 0 0-3.142 3.143m33.786-12.572v89.05h27.24V67.79h-24.096a3.144 3.144 0 0 0-3.144 3.142"></path>
  <path fill="#ffffff"
    d="M124.75 68.84a3.144 3.144 0 0 1 3.143-3.145h25.14c.315 0 .618.054.9.14a3.132 3.132 0 0 0-2.995-2.235h-25.143a3.144 3.144 0 0 0-3.142 3.142v93.24h2.097zm39.022-20.954a3.144 3.144 0 0 0-3.142 3.144v108.952h27.238V47.886z"></path>
  <path fill="#ffffff"
    d="M158.532 48.935a3.144 3.144 0 0 1 3.143-3.145h25.147c.312 0 .61.054.895.14a3.136 3.136 0 0 0-2.993-2.235h-25.139a3.144 3.144 0 0 0-3.144 3.144v113.143h2.093V48.935z"></path>
</svg>